<mxfile host="app.diagrams.net" modified="2023-09-19T02:14:51.175Z" agent="Mozilla/5.0 (X11; CrOS x86_64 14541.0.0) AppleWebKit/537.36 (KHTML, like Gecko) Chrome/116.0.0.0 Safari/537.36" version="21.7.5" etag="mOdaaVqZKW4gx_VqtH5u" type="github">
  <diagram name="Page-1" id="AjLKwZ0yFyvZZE5lovJI">
    <mxGraphModel>
      <root>
        <mxCell id="0" />
        <mxCell id="1" parent="0" />
      </root>
    </mxGraphModel>
  </diagram>
</mxfile>
